<?xml version="1.0" encoding="utf-8"?>
<!-- Generator: Adobe Illustrator 26.0.1, SVG Export Plug-In . SVG Version: 6.00 Build 0)  -->
<svg version="1.1" id="Layer_1" xmlns="http://www.w3.org/2000/svg" xmlns:xlink="http://www.w3.org/1999/xlink" x="0px" y="0px"
	 viewBox="0 0 165.1 74.1" style="enable-background:new 0 0 165.1 74.1;" xml:space="preserve">
<style type="text/css">
	.st0{fill:#EFD941;}
	.st1{fill:#F4CCBD;}
	.st2{fill:#F0810C;}
	.st3{fill:#3764E5;}
	.st4{fill:#F06F0C;}
	.st5{fill:#FFFFFF;}
</style>
<g>
	<path d="M34.05,24.47v24.67c0,10.79-4.29,15.15-12.27,15.15c-7.98,0-12.27-4.36-12.27-15.15V24.47c0-10.79,4.29-15.15,12.27-15.15
		C29.76,9.33,34.05,13.68,34.05,24.47z M25.14,24.94c0-5.09-0.6-6.7-3.35-6.7c-2.75,0-3.35,1.61-3.35,6.7v23.73
		c0,5.09,0.6,6.7,3.35,6.7c2.75,0,3.35-1.61,3.35-6.7V24.94z"/>
	<path d="M75.81,10h10.06L74.67,63.62H59.73V22.2l-7.31,41.42H37.41V10h8.92v43.43L53.49,10h15.15v43.43L75.81,10z"/>
	<path d="M106.04,10h8.92v53.62h-8.92L95.79,34.06v29.56h-8.92V10h8.92l10.25,29.56V10z"/>
	<path class="st3" d="M120.32,10h8.92v53.62h-8.92V10z"/>
	<path class="st3" d="M155.58,18.91h-7.1v44.71h-8.98V18.91h-7.1V10h23.19V18.91z"/>
</g>
</svg>
